<svg xmlns="http://www.w3.org/2000/svg" xmlns:xlink="http://www.w3.org/1999/xlink" viewBox="0 0 64 32"><defs><style>.a{fill:url(#a);}</style><linearGradient id="a" y1="0.5" x2="1" y2="0.531" gradientUnits="objectBoundingBox"><stop offset="0" stop-color="#3869b8"/><stop offset="1" stop-color="#8070c4"/></linearGradient></defs><path class="a" d="M51,32H46V7h4l.5,2a7.427,7.427,0,0,1,5.665-2.5h.085A7.859,7.859,0,0,1,60,7.538,7.562,7.562,0,0,1,62.76,10.25c.916,1.5,1.24,3.13,1.24,6.214a14.118,14.118,0,0,1-.88,5.848A8.734,8.734,0,0,1,60,26.021a9.133,9.133,0,0,1-5.072,1.486A7.74,7.74,0,0,1,51,26.5V32Zm4-21.5c-1.88.017-3.338,1.292-4,3.5v7.5A4.292,4.292,0,0,0,54.12,23a4.392,4.392,0,0,0,3.3-1.3A7.049,7.049,0,0,0,59,16.5c-.023-1.743-.144-3.7-1.291-4.845A3.73,3.73,0,0,0,55,10.5ZM7.4,27.5l-.316,0H6.72a6.7,6.7,0,0,1-4.8-2.028A6.494,6.494,0,0,1,0,20.986V7H5V19.5A3.423,3.423,0,0,0,8.5,23,3.422,3.422,0,0,0,12,19.5V7h5V18.09c0,6,.875,7.7,1.4,8.71l.031.059c.026.049.049.1.072.14h-4A6.106,6.106,0,0,1,13,25,6.684,6.684,0,0,1,9.51,27.271,7.452,7.452,0,0,1,7.4,27.5Zm20.48,0A4.862,4.862,0,0,1,24.36,26c-.915-.918-1.36-2.4-1.36-4.533V11H20V7h3V3.25L28,2V7h4v4H28v8.788a3.981,3.981,0,0,0,.44,2.462A1.737,1.737,0,0,0,29.87,23a7.233,7.233,0,0,0,1.63-.25l1,4.125A16.52,16.52,0,0,1,27.88,27.5ZM41,27H36V7h5V27ZM38.5,5C36.57,5,35,3.879,35,2.5S36.57,0,38.5,0,42,1.122,42,2.5,40.43,5,38.5,5Z" transform="translate(0 0)"/></svg>